<?xml version="1.0" standalone="no"?>
<!DOCTYPE svg PUBLIC "-//W3C//DTD SVG 1.1//EN" "http://www.w3.org/Graphics/SVG/1.1/DTD/svg11.dtd" >
<svg xmlns="http://www.w3.org/2000/svg">
<metadata>
This is a custom SVG webfont generated by Font Squirrel.
Copyright   : Copyright c 1992 Corel Corporation All Rights Reserved
</metadata>
<defs>
<font id="EuromodeBold" horiz-adv-x="1444" >
<font-face units-per-em="2048" ascent="1638" descent="-410" />
<missing-glyph horiz-adv-x="721" />
<glyph unicode=" "  horiz-adv-x="721" />
<glyph unicode="&#x09;" horiz-adv-x="721" />
<glyph unicode="&#xa0;" horiz-adv-x="721" />
<glyph unicode="!" horiz-adv-x="633" d="M168 1536h293l-17 -1020h-256zM188 0v280h256v-280h-256z" />
<glyph unicode="&#x22;" horiz-adv-x="973" d="M104 1268v268h281v-268l-86 -260h-111zM588 1268v268h280v-268l-84 -260h-112z" />
<glyph unicode="#" d="M160 364v236h248l53 272h-217v236h260l20 121l56 307h192l-80 -428h224l80 428h188l-80 -428h184v-236h-221l-47 -272h209v-236h-261l-69 -364h-187l68 364h-225q-21 -128 -67 -364h-191l67 364h-204zM600 600h228l52 272h-233z" />
<glyph unicode="$" d="M51 500h256q1 -127 17 -168q20 -48 53 -69t92 -27q86 -8 168 -8v428q-76 8 -161 18t-150.5 26t-119.5 48q-54 34 -90 88q-56 86 -56 256q0 221 80 319q74 90 193.5 113.5t303.5 23.5v148h164v-148q160 -5 254 -21t158 -60.5t95.5 -133.5t31.5 -237h-256q0 81 -13 121.5 t-43 58.5q-31 18 -65.5 23.5t-89 6t-72.5 2.5v-409q198 -9 309.5 -31t181.5 -84q100 -100 100 -340q-6 -300 -180 -384q-146 -72 -411 -72v-160h-164v160q-160 0 -274.5 22t-190.5 86q-78 66 -99.5 156t-21.5 248zM336 1092q0 -90 49 -140q32 -30 93.5 -39t158.5 -14v409 q-21 -1 -62.5 -2.5t-68.5 -4t-54.5 -9.5t-51.5 -20q-64 -30 -64 -180zM801 228q175 0 239 36q30 22 51 55t21 117q0 100 -30 145t-90 59q-61 14 -191 16v-428z" />
<glyph unicode="%" horiz-adv-x="1851" d="M43 1044v236q5 153 61 209q60 59 228 59h40q92 0 140 -4q95 -15 135 -55q65 -65 65 -225v-216q0 -168 -71 -224q-67 -56 -241 -56h-56q-184 8 -232 56q-64 58 -69 220zM219 1036q7 -69 25 -88q15 -17 39.5 -20.5t88.5 -3.5q67 0 97.5 6t46.5 26q20 30 20 140v168 q0 84 -24 108q-11 11 -30.5 15.5t-54.5 6.5q-35 0 -55 2q-20 -2 -53 -3t-51 -6t-28 -15q-20 -28 -21 -96v-240zM352 0l971 1536h197l-975 -1536h-193zM1145 264v236q4 112 42.5 177t135.5 83q49 8 149 8q101 0 167.5 -11t109.5 -53q63 -60 63 -220v-220q-8 -164 -76 -223 q-66 -53 -264 -53h-40q-160 0 -220 53q-68 59 -67 223zM1317 268q7 -84 23 -100q18 -17 44 -20.5t88 -3.5q70 0 98.5 5t45.5 27q20 34 20 140v163q0 88 -24 113q-20 20 -100 20h-44h-63q-53 -8 -70.5 -35t-17.5 -85v-224z" />
<glyph unicode="&#x26;" horiz-adv-x="1599" d="M121 465q0 112 15.5 188.5t49.5 123.5t89 73q55 24 141 34q-70 56 -101 114t-31 134q0 112 18 186t70 130q40 41 103 63.5t135 29.5t158 7q166 0 261 -24t144 -78t66 -142t17 -237h-252q-4 110 -6 126.5t-15 49.5q-11 36 -52 50.5t-151 14.5q-140 0 -172 -28 q-44 -32 -49 -116q0 -50 10.5 -83.5t32 -58t84 -76t70.5 -57.5l389 -340v207h251v-156q0 -60 -9 -133t-23 -103l219 -196l-139 -168l-180 156q-41 -70 -108.5 -107t-153.5 -49t-201 -12h-80q-180 6 -253.5 13.5t-158 49t-136.5 141.5t-52 273zM396 469q0 -82 16 -133.5 t67 -79.5q33 -14 69 -19t77 -6t102 -3q128 3 175.5 6.5t91.5 22.5t77 63l-503 428q-82 -13 -118.5 -43.5t-45 -81t-8.5 -154.5z" />
<glyph unicode="'" horiz-adv-x="475" d="M100 1004v120q59 0 89 27t30 109h-98v276h256v-264q1 -160 -49 -211q-50 -53 -184 -61q-16 4 -44 4z" />
<glyph unicode="(" horiz-adv-x="712" d="M129 324v552q0 206 13.5 332.5t66.5 202.5q42 60 111.5 90t129.5 36.5t154 10.5v-240q-104 -7 -135 -36q-38 -25 -51.5 -68.5t-13.5 -138.5v-856q0 -24 -4 -41q3 -76 15.5 -123t57.5 -78t135 -31v-243q-143 0 -241.5 24.5t-153.5 94.5q-56 74 -70 198t-14 314z" />
<glyph unicode=")" horiz-adv-x="712" d="M112 -64h17q88 0 131 40q32 27 42 71.5t10 144.5v832v56q0 118 -32 159q-48 69 -168 69v240q268 0 376 -100q64 -62 84 -182t20 -285v-88v-541q0 -195 -13.5 -318.5t-66.5 -201.5q-60 -88 -166 -113.5t-234 -25.5v243z" />
<glyph unicode="*" d="M312 1196l52 144l279 -101v297h158v-297l279 101l52 -156l-280 -92l164 -240l-119 -92l-170 248l-187 -248l-120 92l172 240z" />
<glyph unicode="+" horiz-adv-x="1196" d="M100 479v197h400v399h196v-399h396v-197h-396v-395h-196v395h-400z" />
<glyph unicode="," horiz-adv-x="721" d="M180 -140q62 0 92.5 37t30.5 103h-103v276h261v-248q0 -123 -32.5 -199t-135.5 -85q-41 -4 -113 -4v120z" />
<glyph unicode="-" horiz-adv-x="545" d="M0 465v199h545v-199h-545z" />
<glyph unicode="." horiz-adv-x="721" d="M180 0v280h260v-280h-260z" />
<glyph unicode="/" horiz-adv-x="1396" d="M-12 -232l452 672l736 1096h233l-801 -1188l-393 -580h-227z" />
<glyph unicode="0" d="M88 620v336q3 122 13.5 208t43.5 164.5t99 127.5q100 62 221 77t299 15q184 0 298 -34.5t177 -112.5q64 -73 90.5 -192t26.5 -306v-299q0 -158 -23 -279t-96 -200q-70 -79 -186.5 -106t-298.5 -31q-203 0 -326 24q-122 22 -194 88q-64 58 -96 144t-40 173t-8 203z M364 545q0 -188 56 -256q28 -34 92 -47.5t196 -13.5q106 0 166 5t96.5 20t61.5 46q27 38 35.5 93.5t12.5 156.5v415q0 134 -13 190.5t-43 88.5q-32 36 -95 50.5t-204 14.5q-136 0 -196.5 -11t-92.5 -37q-39 -30 -55.5 -91t-16.5 -233v-391z" />
<glyph unicode="1" d="M160 1071l492 465h356v-1536h-281v1288l-399 -395z" />
<glyph unicode="2" d="M125 0v303q1 244 103 338q50 45 122 70t150 39q79 12 180 30q64 10 127.5 21t100 25t56.5 42q40 50 40 180q0 160 -52 208q-26 29 -76 40.5t-155 11.5q-189 0 -250 -32q-57 -40 -63 -176q-4 -35 -4 -113h-279q0 27 2 77t2 76q5 162 73 252t194 123t325 33 q174 0 285.5 -30.5t171.5 -90t83 -143.5t23 -204q0 -140 -21 -236t-95 -160q-48 -43 -111 -66.5t-135.5 -35t-145.5 -23.5q-54 -8 -122 -17.5t-122 -28.5t-89 -59t-35 -106q-4 -36 -4 -108h880v-240h-1159z" />
<glyph unicode="3" d="M121 516h279q0 -110 12 -166q10 -56 40 -82q28 -26 74.5 -33t110.5 -7h135q149 0 201 32q59 44 59 184q0 132 -45 184q-43 44 -195 44h-188v225q123 0 172 -4q118 9 144 15q49 19 68.5 68.5t19.5 159.5q0 86 -27 124q-27 27 -84 37.5t-197 10.5q-92 0 -144 -7t-85 -29 q-32 -24 -43.5 -75t-11.5 -153h-281q0 110 14 190t42.5 135t72.5 91q40 34 98 54t134 27t176 7q132 0 228.5 -8t164 -29t111.5 -59q64 -52 88 -142t24 -235q-12 -263 -240 -287l-4 -8q98 -8 154.5 -43t85.5 -100q29 -79 29 -181q-1 -331 -189 -415q-68 -32 -168 -42.5 t-276 -10.5q-100 0 -167 3.5t-132.5 20t-120.5 52.5q-86 62 -112.5 185t-26.5 267z" />
<glyph unicode="4" d="M60 328v319l680 889h436v-987h180v-221h-180v-328h-279v328h-837zM293 549h604v774h-8z" />
<glyph unicode="5" d="M135 440h281q0 -126 55 -168q34 -28 81.5 -36t151.5 -8q26 0 44 -5q94 5 142 14t78 39q33 26 44.5 82t11.5 154q0 184 -37 236q-29 43 -88 55.5t-182 15.5q-46 0 -89.5 -1t-84.5 -8.5t-71.5 -28.5t-39.5 -64h-260v819h1071v-223h-811v-381h4q76 129 365 129 q290 0 403 -125q59 -69 77.5 -167.5t22.5 -240.5q0 -340 -128 -440q-74 -64 -180 -82q-108 -18 -288 -18q-154 0 -254 12q-100 14 -174 64q-136 86 -145 376z" />
<glyph unicode="6" d="M125 545v491q0 314 139 416q80 58 177 76q97 16 259 20q176 0 290 -15t182 -77q112 -98 112 -348h-280q0 120 -52 164q-49 32 -184 32h-127q-77 0 -122 -9t-75 -43q-40 -39 -40 -220v-244h4q36 96 120 122t220 26q185 0 292.5 -19t163.5 -81q92 -102 92 -344 q0 -94 -10 -173t-46 -149t-104 -110q-74 -43 -178 -57.5t-262 -14.5q-90 0 -156 4t-136 21t-128 55q-79 52 -115 171.5t-36 305.5zM404 461q0 -164 71 -201q65 -32 229 -32q39 0 60 -5q92 5 135 11t65 26q32 30 42 78.5t10 132.5q0 132 -35 172q-29 34 -86 43.5t-187 9.5 h-52q-168 0 -212 -44q-26 -24 -33 -64.5t-7 -126.5z" />
<glyph unicode="7" d="M131 1284v252h1141v-284l-629 -1252h-315l663 1284h-860z" />
<glyph unicode="8" d="M123 459q0 88 22.5 155.5t82.5 113.5q62 46 168 60v8q-167 32 -216 132q-32 64 -32 192l-4 29q0 89 28 172t92 131q37 32 84.5 51.5t147 32t268.5 12.5q164 0 256 -15t156 -65q124 -94 124 -328q0 -119 -23 -186.5t-74.5 -103.5t-141.5 -54v-8q106 -14 164 -63t78 -118 t20 -155q0 -163 -39.5 -257.5t-117.5 -138.5t-190 -56t-304 -12q-140 2 -229.5 15t-160 54t-112.5 126t-45 225q0 8 -1 24.5t-1 26.5zM400 448q0 -130 40 -168q31 -32 92.5 -42t155.5 -10h68q184 0 235 48q32 21 42.5 62.5t10.5 113.5q0 130 -40 172q-47 48 -283 48 q-225 0 -277 -48q-28 -28 -36 -68.5t-8 -107.5zM424 1132q0 -156 60 -200q35 -23 92.5 -29t163.5 -6h44q82 2 124 9.5t69 37.5q43 54 43 192q0 90 -39 132q-28 24 -80.5 32t-169.5 8q-222 0 -266 -36q-41 -40 -41 -140z" />
<glyph unicode="9" d="M121 428h279q4 -80 16.5 -118t52.5 -58q50 -22 168 -29q25 5 71 5q138 0 195.5 10t87.5 46q49 52 49 200l-4 264h-4q-38 -66 -93 -98t-122 -41t-170 -9q-150 0 -249.5 22t-161.5 86q-100 100 -101 357q0 152 30 246.5t95 144.5q55 42 131.5 63t150.5 25t175 4 q119 0 206 -8t172 -43t134 -109q88 -126 88 -516v-428q1 -250 -137 -356q-55 -42 -130.5 -64t-169.5 -29t-224 -7q-260 0 -367 59q-168 96 -168 381zM412 1061q0 -134 40 -172q34 -38 144 -45q45 -4 125 -4t131 4q104 8 144 45q40 38 40 139v33v23q0 132 -55 176 q-22 18 -55 27.5t-63 13t-71 5.5q-40 0 -75 2q-219 0 -261 -48q-44 -42 -44 -199z" />
<glyph unicode=":" horiz-adv-x="721" d="M180 0v280h260v-280h-260zM180 792v283h260v-283h-260z" />
<glyph unicode=";" horiz-adv-x="721" d="M180 -140q68 0 95.5 30t27.5 110h-103v276h261v-235q0 -90 -9 -150q-8 -59 -40 -91q-30 -32 -68 -44t-79 -13.5t-85 -2.5v120zM200 792v283h261v-283h-261z" />
<glyph unicode="&#x3c;" horiz-adv-x="1196" d="M100 508v144l992 423v-207l-711 -288l711 -291v-205z" />
<glyph unicode="=" horiz-adv-x="1196" d="M100 280v199h992v-199h-992zM100 680v196h992v-196h-992z" />
<glyph unicode="&#x3e;" horiz-adv-x="1196" d="M100 84v205l715 291l-715 288v207l992 -423v-144z" />
<glyph unicode="?" horiz-adv-x="1220" d="M104 1067q0 180 31 274.5t97 134.5q75 48 166.5 60t225.5 12q300 0 400 -112q88 -99 88 -324q0 -156 -39 -227.5t-117 -116.5q-25 -15 -86.5 -39.5t-91.5 -38.5t-57 -38q-36 -26 -41 -56q-8 -24 -8 -108h-260q0 119 10 178.5t56 108.5t150 93q49 18 84.5 32t61.5 29 t41 35q41 52 41 152q0 128 -41 168q-24 30 -70.5 38.5t-136.5 8.5q-100 -4 -147 -13t-70 -38q-25 -34 -31 -121q4 -11 4 -31v-61h-260zM412 0v280h260v-280h-260z" />
<glyph unicode="@" horiz-adv-x="1997" d="M180 684q4 16 4 41q11 160 83.5 308.5t192.5 264.5t275.5 183t325.5 67q144 -3 278.5 -54.5t241.5 -146t169 -226t62 -289.5q-4 -116 -62 -233t-157 -192t-217 -79q-82 0 -133 22t-98 98q-125 -112 -265 -120q-130 10 -210 96.5t-86 218.5q6 116 68.5 236.5t167 198 t228.5 77.5q64 0 121.5 -36.5t73.5 -94.5h4l25 104h160l-144 -532q0 -20 -4 -33q5 -75 84 -75q106 0 176 120q82 138 88 252q0 108 -49 204t-132.5 166t-186 108t-207.5 38q-171 0 -328 -91.5t-252.5 -244t-95.5 -323.5q0 -122 49.5 -224.5t136.5 -177.5t200 -117 q113 -40 233 -42q12 4 28 4q174 0 320 59l61 -155q-146 -68 -381 -76q-158 0 -307 43t-272 132t-195 220t-74 301zM780 664q4 -12 4 -36q16 -140 136 -140q80 0 138 56t88 141t30 163q0 90 -56 129q-60 23 -104 23q-111 -6 -169.5 -110t-66.5 -226z" />
<glyph unicode="A" horiz-adv-x="1452" d="M-8 0l352 1065l160 471h432l524 -1536h-301l-98 289h-665l-99 -289h-305zM461 512h530l-264 801h-2z" />
<glyph unicode="B" horiz-adv-x="1468" d="M129 0v1536h770q267 0 357 -96q92 -84 92 -304q0 -174 -64 -256q-50 -60 -156 -84v-8q116 -13 172.5 -71t70 -128.5t13.5 -160.5q0 -248 -108 -340q-100 -88 -348 -88h-799zM424 252h440q80 0 127 12q97 34 97 188q0 126 -40 172q-46 44 -168 44h-456v-416zM424 893h404 q70 0 96 4q74 13 101 68t27 143q0 86 -28 129q-22 27 -62 37t-130 10h-408v-391z" />
<glyph unicode="C" horiz-adv-x="1423" d="M76 756q0 198 5 299t29 184t78 153q53 65 141 99.5t186.5 45.5t211.5 11q128 0 209 -4.5t157.5 -25.5t126.5 -66q55 -50 81.5 -124t32.5 -145.5t6 -162.5h-292v96q0 94 -44 136q-46 44 -256 44h-44q-117 0 -176.5 -14t-95.5 -49q-64 -62 -64 -256v-401q0 -231 76 -283 q46 -36 107 -44.5t170 -8.5q131 0 176 4q79 16 119 53q18 18 28 45.5t13 55.5t5 71t3 80h291v-97v-36q0 -225 -113 -328q-100 -78 -303 -92q-72 -6 -176 -9t-121 -3q-319 0 -443 124q-58 59 -85 149.5t-33 197.5t-6 301z" />
<glyph unicode="D" horiz-adv-x="1544" d="M125 0v1536h739q406 0 528 -219q72 -135 72 -377v-328q0 -408 -231 -544q-54 -31 -142.5 -49.5t-166.5 -18.5h-799zM420 252h444q88 0 144 20t100 84q60 84 60 296v104v172q0 136 -18 207t-88 110t-218 39h-424v-1032z" />
<glyph unicode="E" horiz-adv-x="1267" d="M112 0v1536h1056v-252h-760v-385h720v-239h-720v-408h764v-252h-1060z" />
<glyph unicode="F" horiz-adv-x="1192" d="M116 0v1536h1020v-252h-724v-408h684v-243h-684v-633h-296z" />
<glyph unicode="G" horiz-adv-x="1489" d="M68 549v383q0 126 14.5 217t44 154t73.5 108q59 60 147.5 90.5t182.5 38.5t214 8h112q144 0 245 -15t175 -73q129 -102 129 -340v-49h-293q0 126 -55 176q-36 31 -103.5 40t-189.5 9q-151 0 -222.5 -12t-113.5 -47q-64 -65 -64 -281v-368q0 -216 60 -285q48 -43 152 -59 q58 -4 172 -4q72 0 104 -4q77 4 120.5 15t84.5 46q35 32 45 94.5t10 157.5v43h-387v223h684v-299q0 -144 -25 -255.5t-108 -172.5q-94 -72 -293 -92q-79 -8 -239 -8q-127 0 -218.5 7t-176.5 35q-85 26 -144 82q-137 118 -137 437z" />
<glyph unicode="H" horiz-adv-x="1577" d="M131 0v1536h297v-628h717v628h295v-1536h-295v656h-717v-656h-297z" />
<glyph unicode="I" horiz-adv-x="563" d="M131 0v1536h297v-1536h-297z" />
<glyph unicode="J" horiz-adv-x="1192" d="M56 469q4 43 4 131h284q0 -131 -4 -180q6 -106 45 -144q22 -24 54.5 -30t113.5 -6q102 0 137.5 11t53.5 33q22 26 27 67t5 118v1067h295v-1071q0 -128 -22 -230q-23 -101 -97 -163q-48 -37 -102 -55.5t-121 -23.5t-170 -5q-104 0 -187.5 11t-144.5 39t-98 78 q-30 38 -45.5 84.5t-20.5 103.5t-7 165z" />
<glyph unicode="K" horiz-adv-x="1464" d="M131 0v1536h297v-628h140l512 628h360l-621 -752l684 -784h-371l-564 656h-140v-656h-297z" />
<glyph unicode="L" horiz-adv-x="1155" d="M131 0v1536h297v-1284h721v-252h-1018z" />
<glyph unicode="M" horiz-adv-x="2064" d="M131 0v1536h477l416 -1140h8l412 1140h483v-1536h-295l25 1296h-9l-484 -1296h-265l-487 1288h-8l16 -571l8 -717h-297z" />
<glyph unicode="N" horiz-adv-x="1691" d="M131 0v1536h489l660 -1284h8l-24 1284h296v-1536h-493l-651 1284h-12l16 -637l8 -647h-297z" />
<glyph unicode="O" horiz-adv-x="1464" d="M80 553v420q0 134 17 237.5t71 181.5q50 70 142.5 105t191 43t225.5 8q120 0 223.5 -9.5t197.5 -45t140 -105.5q24 -26 60 -117t36 -267v-496q0 -139 -26 -215q-26 -75 -74 -145q-53 -73 -150 -108.5t-199.5 -43.5t-246.5 -8q-176 0 -296 25t-196 108q-116 116 -116 432z M368 991q4 -18 4 -47v-364q0 -188 44 -260q36 -54 103 -67t206 -17q135 3 204 20.5t107 63.5q22 33 37 96.5t15 136.5v407v56q0 146 -52 208q-50 54 -160 68q-68 4 -145 4q-143 0 -220 -20.5t-103 -79.5q-30 -67 -40 -205z" />
<glyph unicode="P" horiz-adv-x="1405" d="M112 0v1536h672q180 0 309.5 -34t190.5 -150q56 -128 56 -336q0 -284 -97 -400q-47 -58 -157 -89t-230 -31h-448v-496h-296zM408 748h372q164 0 207 40q41 34 49 74t12 142q0 146 -32 204q-25 42 -76.5 59t-151.5 17h-380v-536z" />
<glyph unicode="Q" horiz-adv-x="1569" d="M104 768v135q3 134 9.5 208.5t30.5 148.5t71 132q56 67 148 101.5t195.5 44.5t229.5 10q128 0 231 -11t183 -42t129 -84q59 -60 88 -131.5t37 -155.5t8 -216v-275q0 -248 -28 -330l147 -98l-115 -172l-137 98q-60 -62 -141 -93.5t-177.5 -40.5t-232.5 -9q-130 0 -216 6 t-170 32t-146 82q-68 62 -99 158t-38 207t-7 295zM400 633q0 -139 11 -216t54 -118q40 -40 103.5 -49.5t179.5 -9.5q68 0 92 -4q108 10 154 18q48 9 94 45l-376 246l120 176l327 -225q0 23 5 102q4 80 4 150v164q0 130 -8 195t-36 105q-38 48 -120 66t-232 18 q-148 0 -223 -21.5t-113 -82.5q-36 -62 -36 -240v-319z" />
<glyph unicode="R" horiz-adv-x="1480" d="M125 0v1536h755q298 0 404 -116q92 -104 92 -340q0 -256 -68 -336q-60 -74 -204 -101v-6q134 -13 204 -92q56 -89 56 -261v-284h-297v232q0 80 -7.5 132.5t-39.5 88t-74 45.5t-114 10h-31h-381v-508h-295zM420 760h424q77 0 118.5 12.5t73.5 46.5q44 56 44 213 q0 145 -36 197q-28 35 -78 45t-130 10h-416v-524z" />
<glyph unicode="S" horiz-adv-x="1380" d="M68 488h292q0 -26 -4 -44q4 -71 13 -107.5t35 -60.5q30 -27 78 -35.5t138 -12.5q43 0 64 -5q112 5 169 12t95 29q68 42 68 192q0 106 -43 152q-16 14 -40.5 24t-49.5 13t-63 6t-85 5q-82 4 -154.5 7t-138 11t-130 28t-107.5 54q-121 90 -129 336q0 258 116 360 q122 96 460 96q204 0 292 -8q142 -18 215 -80q77 -62 99 -151t22 -225h-297v61q-1 87 -31 119q-36 40 -184 40h-121q-176 0 -227 -40q-28 -20 -40 -54.5t-12 -101.5q4 -76 13.5 -110t46.5 -54q30 -16 74 -24.5t104.5 -13t114.5 -7.5q182 -12 301 -29.5t182 -64.5 q38 -31 60 -74t32 -90t12 -82t5 -115q0 -128 -36.5 -227t-104.5 -149q-108 -80 -441 -80h-111q-148 0 -254 16t-182 80q-55 48 -80 109t-30.5 126t-5.5 169z" />
<glyph unicode="T" horiz-adv-x="1204" d="M4 1284v252h1196v-252h-452v-1284h-296v1284h-448z" />
<glyph unicode="U" horiz-adv-x="1544" d="M131 444v1092h297v-1116q0 -55 12 -83.5t48 -52.5q44 -30 102 -37t162 -7q37 0 53 -4q108 4 164.5 14t95.5 43q34 28 42.5 64.5t8.5 117.5v1061h295v-1100q0 -242 -135 -352q-82 -64 -218 -80t-331 -16q-142 0 -243.5 13t-184.5 59q-86 50 -127 152t-41 232z" />
<glyph unicode="V" horiz-adv-x="1388" d="M-24 1536h300l412 -1292h4l412 1292h305l-497 -1536h-443z" />
<glyph unicode="W" horiz-adv-x="2279" d="M-8 1536h297l319 -1296h8l352 1296h340l344 -1296h9l331 1296h296l-412 -1536h-428l-308 1172h-8l-317 -1172h-424z" />
<glyph unicode="X" horiz-adv-x="1419" d="M-24 0l508 792l-472 744h344l361 -612l350 612h342l-461 -744l492 -792h-340l-383 647l-393 -647h-348z" />
<glyph unicode="Y" horiz-adv-x="1372" d="M-24 1536h336l364 -656h8l373 656h339l-568 -948v-588h-296v588z" />
<glyph unicode="Z" horiz-adv-x="1327" d="M47 0v248l850 1028v8h-809v252h1176v-252l-848 -1028v-4h860v-252h-1229z" />
<glyph unicode="[" horiz-adv-x="712" d="M121 -307v1855h475v-225h-196v-1407h196v-223h-475z" />
<glyph unicode="\" horiz-adv-x="567" d="M-72 1536h203l506 -1536h-201q-56 170 -155 469l-198 598t-155 469z" />
<glyph unicode="]" horiz-adv-x="712" d="M116 -84h196v1407h-196v225h476v-1855h-476v223z" />
<glyph unicode="^" horiz-adv-x="1196" d="M100 545l424 991h144l424 -991h-203l-293 711l-293 -711h-203z" />
<glyph unicode="_" horiz-adv-x="1024" d="M0 -156h1024v-151h-1024v151z" />
<glyph unicode="`" horiz-adv-x="760" d="M156 1356l92 168l360 -236l-55 -108z" />
<glyph unicode="a" horiz-adv-x="1208" d="M88 324q0 186 92 260q90 76 308 76q80 0 136 -6.5t108 -34t77 -83.5h10v164q-1 104 -23 144q-17 30 -56 49t-148 19q-86 -4 -112 -8t-56 -28q-37 -35 -37 -116h-258q1 196 111 268q94 60 305 60h35q305 0 403 -88q92 -84 92 -288v-712h-256l13 131l-8 4 q-34 -94 -117 -120.5t-228 -26.5q-228 0 -311 88q-80 77 -80 248zM344 328q0 -68 24 -113q19 -30 65.5 -40.5t134.5 -10.5q96 0 146 11t78 48q26 44 27 109q0 92 -65 122q-64 30 -170 30q-104 -5 -143 -11.5t-64 -36.5q-33 -36 -33 -108z" />
<glyph unicode="b" horiz-adv-x="1216" d="M116 0v1536h261v-604h10q40 92 124.5 124t200.5 32q124 -3 195 -26.5t121 -78.5q92 -102 92 -379v-84q0 -104 -6 -178t-31 -147t-79 -123q-48 -45 -122 -64.5t-182 -19.5q-248 0 -328 172h-8l13 -160h-261zM372 516q6 -104 14 -162.5t34 -97.5q44 -72 196 -72 q64 0 112 11t83 49q34 34 43.5 112t9.5 184t-6 170t-34 109q-42 70 -191 70h-37q-126 0 -176 -74q-26 -36 -34.5 -99t-8.5 -153q-1 -27 -5 -47z" />
<glyph unicode="c" horiz-adv-x="1128" d="M92 524q0 192 20 282t72 158q62 76 154 98t238 26q118 0 219 -18.5t149 -53.5q70 -50 95.5 -139t25.5 -181h-256q0 100 -33 140q-38 58 -200 57q-147 1 -189 -65q-23 -36 -29 -76q-6 -42 -10 -128q4 -20 4 -65q0 -93 -4 -147q3 -16 7.5 -62t12.5 -74q10 -28 32 -53 q26 -24 57 -31.5t96 -11.5q14 4 39 4q81 0 115.5 8t60.5 31q37 37 37 149v36h260q-1 -254 -105 -340q-100 -80 -376 -80q-154 0 -242 18t-150 82q-42 45 -64 103t-29 135.5t-7 197.5z" />
<glyph unicode="d" horiz-adv-x="1216" d="M84 520q0 192 12 281q27 128 84 182q48 53 119 77t193 28q264 0 327 -156h9v604h260v-1536h-260l12 160h-8q-78 -172 -328 -172q-216 0 -304 88q-54 48 -79 122.5t-31 149t-6 172.5zM340 532q0 -104 9 -177t42 -111q28 -32 66.5 -46t95.5 -18q24 6 78.5 11t87.5 17t61 44 q44 57 44 264v52q0 96 -9 144q-13 91 -77 136t-166 45q-146 0 -191 -74q-41 -75 -41 -287z" />
<glyph unicode="e" horiz-adv-x="1167" d="M84 553q0 320 108 428q110 107 388 107q294 -10 380 -88q55 -48 81.5 -130t32.5 -159t10 -223h-740q0 -35 -4 -60q4 -84 17 -137.5t51 -75.5q42 -20 76 -25.5t112 -5.5q88 0 124 6t64 29q40 32 40 121h260q0 -196 -101 -280q-56 -45 -148.5 -58.5t-238.5 -13.5 q-95 0 -170.5 8t-140 33t-105.5 71q-61 72 -78.5 186.5t-17.5 266.5zM344 652h480q0 158 -36 196q-15 16 -39.5 25t-54.5 13t-58 5l-56 2q-82 -4 -129 -13t-70 -36q-24 -26 -30.5 -71t-6.5 -121z" />
<glyph unicode="f" horiz-adv-x="712" d="M28 876v199h152v105q0 212 84 288q72 68 260 68h168v-196h-76q-100 0 -132 -23q-28 -17 -38 -52t-10 -97v-93h264v-199h-264v-876h-256v876h-152z" />
<glyph unicode="g" horiz-adv-x="1216" d="M84 471v101q0 306 100 411t312 105q148 0 221 -43t115 -133h8l-8 163h256v-1079q0 -128 -20 -224.5t-91 -158.5q-66 -58 -168.5 -75t-236.5 -17q-110 0 -201 15.5t-152 67.5q-60 54 -75 118t-15 166h243q0 -86 32 -128q36 -40 168 -40q162 0 212 40q56 48 56 184v208h-8 q-70 -164 -332 -164q-230 0 -324 108q-92 104 -92 375zM344 488q0 -172 43 -236q55 -68 185 -68q158 0 208 68q34 46 43 112t9 172v23q0 209 -64 277q-66 58 -196 57q-128 1 -181 -57q-47 -58 -47 -248v-100z" />
<glyph unicode="h" horiz-adv-x="1224" d="M125 0v1536h260v-624h6q28 79 83.5 117.5t115.5 48.5t141 10q195 0 281 -84q88 -83 88 -287v-717h-260v684q0 65 -9 105.5t-39 66.5q-41 31 -151 37q-145 1 -197 -61q-60 -57 -59 -228v-604h-260z" />
<glyph unicode="i" horiz-adv-x="483" d="M112 0v1075h256v-1075h-256zM112 1317v219h256v-219h-256z" />
<glyph unicode="j" horiz-adv-x="461" d="M-24 -180h24q100 0 100 139v45v1071h260v-1103q0 -106 -18.5 -177t-81.5 -123q-63 -50 -184 -49q-48 1 -100 9v188zM100 1317v219h260v-219h-260z" />
<glyph unicode="k" horiz-adv-x="1104" d="M125 0v1536h256v-880h63l304 419h288l-380 -507l460 -568h-311l-361 479h-63v-479h-256z" />
<glyph unicode="l" horiz-adv-x="516" d="M129 0v1536h258v-1536h-258z" />
<glyph unicode="m" horiz-adv-x="1892" d="M129 0v1075h248v-155h10q71 168 338 168q279 0 319 -191h8q28 77 82.5 118t118 55t143.5 18q154 0 234.5 -47t107 -126t26.5 -203v-712h-261v672q0 82 -14.5 129t-53 69.5t-112.5 22.5q-131 -3 -189.5 -59t-58.5 -206v-628h-260v684q0 114 -34 161.5t-144 47.5 q-136 -3 -193 -60t-57 -217v-616h-258z" />
<glyph unicode="n" horiz-adv-x="1224" d="M125 0v1075h260v-163h6q28 79 83.5 117.5t115.5 48.5t141 10q150 -2 230.5 -45.5t109.5 -124t29 -210.5v-708h-260v676q0 82 -15.5 128t-58 67.5t-125.5 21.5q-139 1 -201 -65q-30 -29 -42.5 -85.5t-12.5 -158.5v-584h-260z" />
<glyph unicode="o" horiz-adv-x="1192" d="M88 504q0 166 15 280t69 180q98 124 424 124q94 0 167 -8t133 -30t104 -63q68 -66 84 -166.5t20 -288.5q0 -169 -20 -282.5t-97 -177.5q-68 -52 -165 -68t-230 -16q-100 0 -177 8t-144.5 38t-106.5 87q-76 109 -76 383zM348 532q0 -110 6.5 -175.5t30.5 -104.5 q26 -44 79.5 -56t131.5 -12q72 0 124 10t81 46q28 42 35.5 102t7.5 190q0 113 -7 187.5t-36 112.5q-28 37 -75.5 46.5t-129.5 14.5q-80 -5 -125 -14t-75 -43q-32 -34 -40 -108t-8 -196z" />
<glyph unicode="p" horiz-adv-x="1220" d="M121 -469v1544h260l-13 -163h9q42 96 125 136q82 40 210 40q200 0 296 -88q78 -70 97 -173t23 -272q0 -174 -16 -283.5t-80 -179.5q-50 -57 -126 -80q-76 -24 -198 -24q-116 0 -197 31t-120 121h-10v-609h-260zM377 584q4 -24 4 -76q0 -94 7.5 -153t35.5 -99 q34 -44 88 -58t125 -14q149 0 191 68q40 74 40 284q0 106 -10 183t-47 113q-32 36 -72 46.5t-102 14.5q-160 0 -213 -78q-39 -53 -47 -231z" />
<glyph unicode="q" horiz-adv-x="1224" d="M88 444q4 26 4 76q0 169 20 289.5t97 190.5q51 47 121.5 65.5t177.5 22.5q252 0 332 -176h8l-12 163h260v-1544h-260v613h-8q-40 -93 -125 -124.5t-203 -31.5q-121 0 -192 23q-72 23 -124 81q-52 60 -72 145t-24 207zM344 484q4 -86 12.5 -138t34.5 -90q30 -44 78.5 -58 t110.5 -14q70 0 124 14q52 14 88 58q29 38 36.5 97t7.5 155v45q0 197 -44 258q-54 82 -216 82q-66 -5 -101 -12t-67 -37q-60 -60 -60 -312q0 -28 -4 -48z" />
<glyph unicode="r" horiz-adv-x="964" d="M108 0v1075h252l-8 -143h12q68 156 283 156q100 0 156.5 -29.5t89.5 -85.5q39 -77 39 -217v-92h-240q0 97 -7.5 141.5t-35 64.5t-90.5 23q-98 0 -146.5 -55.5t-48.5 -177.5v-660h-256z" />
<glyph unicode="s" horiz-adv-x="1140" d="M84 336h260q0 -120 56 -152q32 -16 132 -24q20 4 52 4h20q29 0 39 -4q90 4 133 30.5t43 112.5q0 90 -59.5 117.5t-167.5 31.5q-192 4 -286 16t-146 56q-76 66 -76 236v32q0 111 40 173.5t124 91.5q96 31 324 31q128 0 207 -9.5t137 -46.5q120 -76 120 -252h-256 q0 82 -54 107t-154 25q-126 0 -181 -23q-47 -34 -47 -121q0 -44 13 -70t67 -38q86 -12 180 -13q198 -2 297.5 -34t135 -101.5t38.5 -204.5q0 -112 -45 -178.5t-118.5 -96.5t-155.5 -37t-193 -7h-14q-142 0 -231.5 12t-145.5 60q-44 45 -66 106.5t-22 169.5z" />
<glyph unicode="t" horiz-adv-x="872" d="M-4 876v199h133v246h258v-246h414v-199h-414v-556q0 -56 8.5 -84t31.5 -40t73 -12q128 0 128 160v68h228q0 -236 -64 -324q-76 -100 -292 -100q-102 0 -180 14t-120 58q-72 72 -71 264v552h-133z" />
<glyph unicode="u" horiz-adv-x="1216" d="M125 289v786h260v-703q0 -58 6 -93t29 -56q24 -21 51 -30t97 -9q79 0 126.5 15t85.5 61q48 60 48 188v627h256v-1075h-248v164h-8q-70 -176 -344 -176q-358 0 -359 301z" />
<glyph unicode="v" horiz-adv-x="1003" d="M-4 1075h264l252 -899h4l236 899h272l-312 -1075h-392z" />
<glyph unicode="w" horiz-adv-x="1632" d="M4 1075h252l184 -899h4l212 899h321l207 -899h8l184 899h252l-244 -1075h-372l-193 864h-8l-191 -864h-372z" />
<glyph unicode="x" horiz-adv-x="1024" d="M-12 0l356 563l-316 512h296l188 -344l184 344h300l-312 -512l348 -563h-305l-215 391l-215 -391h-309z" />
<glyph unicode="y" horiz-adv-x="991" d="M-12 1075h268l272 -915h4l208 915h264l-152 -604l-148 -600q-28 -114 -70 -190.5t-114 -116.5q-74 -39 -213 -39q-72 0 -102 4v195q9 0 28 -2t27 -2q100 0 142 69t67 211h-125l-176 536z" />
<glyph unicode="z" horiz-adv-x="973" d="M43 0v219l577 657h-528v199h832v-215l-580 -664h580v-196h-881z" />
<glyph unicode="{" horiz-adv-x="796" d="M76 532v195q168 1 168 101v452q0 95 44 156t98.5 86.5t88.5 25.5h197v-196h-56q-62 0 -89 -24t-27 -85v-419q0 -166 -197 -196v-4q197 -8 197 -228v-400q0 -108 104 -108h68v-195h-201q-45 0 -99 32.5t-91 94.5t-37 143v397v27q0 145 -168 145z" />
<glyph unicode="|" horiz-adv-x="571" d="M188 0v1536h197v-1536h-197z" />
<glyph unicode="}" horiz-adv-x="796" d="M125 -112h59q108 0 109 108v391q1 201 199 221v4q-86 8 -142.5 51t-56.5 165v409v23q-1 92 -101 92h-67v196h191q37 0 93.5 -27t100 -89t43.5 -156v-444q0 -70 44.5 -97t123.5 -27v-196q-113 0 -149 -41q-15 -17 -23 -90q4 -12 4 -33v-376q0 -90 -39.5 -153t-95.5 -94.5 t-98 -31.5h-195v195z" />
<glyph unicode="~" horiz-adv-x="1196" d="M100 448q0 78 36.5 154t102 123t146.5 47q49 0 111 -37l221 -123q65 -36 119 -36q88 0 88 128h168q0 -74 -30 -147t-85 -122t-125 -50q-54 0 -107 21.5t-153 72.5q-19 10 -84.5 42.5t-98.5 45.5t-57 13q-64 0 -80 -132h-172z" />
<glyph unicode="&#xa1;" horiz-adv-x="633" d="M168 -461l20 1020h256l17 -1020h-293zM188 796v279h256v-279h-256z" />
<glyph unicode="&#xa2;" d="M232 692q0 300 61 404q56 96 143.5 128t219.5 40v141h145v-141q101 -4 172 -22q71 -16 131 -66q106 -84 112 -304h-260q-4 72 -7 90q-3 20 -25 46q-28 42 -123 57v-709q89 14 119 44q36 32 36 128v52h260v-40q0 -216 -100 -296q-94 -76 -315 -84v-172h-145v172 q-200 0 -304 88q-70 61 -95 173.5t-25 270.5zM488 680q0 -142 29 -224q29 -84 139 -100v709q-44 -3 -76 -27q-32 -23 -48 -51q-28 -46 -36 -109.5t-8 -197.5z" />
<glyph unicode="&#xa3;" d="M100 580v225h199v279q0 117 27 214q28 98 82 150q110 100 407 100h65q146 0 247 -21t153 -79q62 -67 79 -162.5t17 -233.5h-280v72q0 100 -31 132q-47 52 -225 52q-158 0 -207 -40q-49 -43 -57 -211q4 -25 4 -70v-182h411v-225h-411v-72q0 -100 -21 -161t-90 -107l2 -4 l917 12v-248h-1244v240q99 11 127 87.5t28 200.5v52h-199z" />
<glyph unicode="&#xa4;" d="M209 1092l139 141l160 -158q82 61 213 61q60 0 124.5 -17t94.5 -44l160 164l139 -139l-164 -164q65 -106 65 -205q-4 -50 -24 -117t-49 -106l162 -156l-141 -137l-160 162q-54 -34 -97 -49.5t-104 -15.5q-132 0 -211 69l-164 -166l-139 137l159 164q-66 68 -65 209 q-1 146 61 211zM504 721q3 -98 68.5 -155.5t152.5 -57.5q95 0 155 59t60 160q-2 58 -32 107t-79 77.5t-108 28.5q-91 -3 -154 -65t-63 -154z" />
<glyph unicode="&#xa5;" d="M43 1536h321l353 -656h4l354 656h326l-256 -436h191v-224h-316l-108 -176h424v-225h-480v-475h-280v475h-468v225h412l-104 176h-308v224h185z" />
<glyph unicode="&#xa6;" horiz-adv-x="399" d="M188 0v660h197v-660h-197zM188 899v637h197v-637h-197z" />
<glyph unicode="&#xa7;" d="M108 580q0 140 42 202t122 82q-112 72 -112 268q0 128 24 206t84 130q66 52 181 66t282 14h65q138 0 235.5 -18.5t156.5 -77.5q50 -50 69 -125t19 -178v-53h-264q-8 142 -44 172q-28 26 -71 32q-43 4 -162 8q-210 0 -256 -36q-36 -24 -43 -100q10 -17 10.5 -52.5t6 -55.5 t31.5 -32q36 -28 132 -49l480 -107q112 -23 164 -75q76 -69 76 -238q0 -264 -144 -315v-4q88 -30 113.5 -102t25.5 -198q0 -252 -131 -344q-64 -46 -163 -60.5t-236 -14.5h-74q-148 0 -266.5 13.5t-192.5 61.5q-82 60 -107.5 160.5t-25.5 243.5h269q4 -88 12 -129 q6 -41 36 -67q32 -26 96 -35t173 -9q177 0 247 23q49 20 64.5 61.5t15.5 104.5q0 128 -151 168l-501 107q-100 24 -154 46t-82 62q-32 40 -42 100t-10 144zM368 572q9 -98 93 -124l436 -104q14 -3 30.5 -6.5t24.5 -5.5q77 6 100 60t23 144q0 68 -31.5 100.5t-131.5 55.5 l-357 84l-21 4q-20 4 -42 4q-120 0 -120 -172q0 -20 -4 -40z" />
<glyph unicode="&#xa8;" horiz-adv-x="927" d="M156 1243v185h204v-185h-204zM572 1243v185h204v-185h-204z" />
<glyph unicode="&#xa9;" horiz-adv-x="1616" d="M28 764q0 154 57 296t162.5 253t249 173t308.5 62q212 0 393.5 -105t287.5 -285.5t106 -393.5v-4q-3 -164 -67.5 -305.5t-175 -246t-252 -162.5t-292.5 -58q-212 0 -390 104.5t-281.5 284t-105.5 387.5zM176 784q0 -178 85 -327.5t229.5 -236.5t314.5 -89q2 2 3.5 3 t2.5 1q172 0 318 86t230.5 232t84.5 315q-2 178 -88 322t-231 227t-316 88q-166 0 -310.5 -83.5t-231.5 -226.5t-91 -311zM408 772q4 12 4 33q6 135 66 231t156 144q96 49 206 49q94 -2 170.5 -35.5t127 -99.5t66.5 -162h-172q-15 72 -66.5 112t-129.5 40t-136 -43t-87 -115 t-29 -158q2 -78 36 -147t92 -110.5t128 -41.5t128 41.5t64 117.5h172q-8 -90 -59.5 -157.5t-130.5 -105t-170 -41.5q-106 0 -206 50.5t-164 152t-66 245.5z" />
<glyph unicode="&#xaa;" horiz-adv-x="899" d="M72 620v140h764v-140h-764zM125 1088q0 116 55 155q52 49 207 49q70 0 112.5 -10t63.5 -45h5q0 35 -5 55q0 88 -8 100q-15 42 -111 48q-60 0 -92 -19t-32 -73h-176q0 122 71 164q57 40 225 40q108 0 174 -19.5t98 -69t32 -140.5v-430h-172l4 63l-4 4q-22 -39 -59 -55.5 t-101 -20.5q-96 0 -148 9t-88 39q-51 52 -51 156zM297 1104q5 -6 7 -33q4 -27 8 -39q8 -12 19 -19.5t26 -10.5t34 -4.5t37 -1.5q68 0 104 20t36 80q0 84 -140 84q-84 0 -112 -25q-14 -11 -19 -51z" />
<glyph unicode="&#xab;" horiz-adv-x="1083" d="M104 563l273 545l176 -100l-221 -445l231 -432l-167 -103zM524 563l272 545l172 -100l-220 -445l233 -432l-166 -103z" />
<glyph unicode="&#xac;" horiz-adv-x="1196" d="M104 684v196h992v-632h-197v436h-795z" />
<glyph unicode="&#xad;" horiz-adv-x="545" d="M0 465v199h545v-199h-545z" />
<glyph unicode="&#xae;" horiz-adv-x="1616" d="M33 788q4 208 108 384t282 278t388 102t389.5 -102t285.5 -282.5t106 -399.5q0 -211 -105 -390t-285 -283.5t-391 -106.5q-212 0 -391 106t-283 289.5t-104 404.5zM176 764q4 -174 87 -317t227 -226.5t321 -85.5q126 0 242.5 48.5t203.5 134.5t137 202.5t50 247.5 q0 176 -84 322t-229 230.5t-320 84.5t-321 -86.5t-230 -233.5t-84 -321zM488 344v844h409q182 0 254.5 -62t72.5 -202q-8 -124 -68 -168t-160 -52l204 -360h-192l-189 360h-167v-360h-164zM652 824h220q61 0 98 6t63 34t28 88q0 64 -46.5 88.5t-150.5 24.5h-212v-241z" />
<glyph unicode="&#xb1;" horiz-adv-x="1196" d="M104 0v196h992v-196h-992zM104 604v197h396v274h196v-274h400v-197h-400v-280h-196v280h-396z" />
<glyph unicode="&#xb2;" horiz-adv-x="868" d="M68 628v177q0 141 63 199q28 26 72.5 42t90.5 24q48 8 106 18q85 15 113 24.5t41.5 40.5t13.5 107v24q0 117 -144 117q-68 0 -97 -6.5t-43 -34.5q-20 -48 -20 -148h-196v44q0 121 36 184.5t110.5 85.5t205.5 22q146 0 220 -32.5t99 -93t25 -162.5q0 -173 -68 -228 q-48 -38 -105 -52t-163 -32t-131 -36q-33 -20 -33 -97v-27h500v-160h-696z" />
<glyph unicode="&#xb3;" horiz-adv-x="868" d="M64 932h196q0 -73 3 -97.5t17 -38.5q14 -15 36 -17.5t100 -2.5q132 0 164 20q28 26 28 88q0 68 -30 100t-99 32h-123v160h144q52 0 72 22.5t20 89.5q0 60 -30 80t-97 20h-88q-64 0 -84.5 -37t-20.5 -108h-196q0 126 31 192t96 89.5t178 23.5h27q129 0 199.5 -13 t113.5 -46q67 -65 67 -189q-6 -188 -164 -208v-4q96 -8 136 -66q41 -56 41 -186q-8 -85 -43.5 -132t-116.5 -67.5t-229 -20.5q-24 0 -44 -4q-81 4 -131.5 13t-88.5 35q-52 40 -65 105t-19 167z" />
<glyph unicode="&#xb4;" horiz-adv-x="760" d="M152 1284l364 240l92 -168l-399 -176z" />
<glyph unicode="&#xb5;" horiz-adv-x="1216" d="M129 -465v1540h258v-711q-1 -122 61 -159q39 -21 148 -21q128 3 182 68.5t54 195.5v627h256v-1075h-248v164h-8q-36 -94 -128 -135q-90 -41 -204 -41q-34 0 -113 8v-461h-258z" />
<glyph unicode="&#xb6;" d="M-4 996q0 142 26 254t78 165q112 121 453 121h867v-2001h-224v1761h-176v-1761h-224v957h-280q-336 0 -436 136q-84 124 -84 368zM272 973q8 -141 48 -189q48 -54 192 -53h284v565h-241h-27q-164 0 -208 -49t-44 -207q0 -42 -4 -67z" />
<glyph unicode="&#xb8;" horiz-adv-x="633" d="M152 -164l235 140l88 -128l-266 -108z" />
<glyph unicode="&#xb9;" horiz-adv-x="868" d="M96 1272l295 280h246v-924h-197v764l-240 -239z" />
<glyph unicode="&#xba;" horiz-adv-x="899" d="M72 620v140h764v-140h-764zM140 1192v47q0 175 48 233q62 80 268 80q104 0 168 -18t101 -70q20 -30 31.5 -104t11.5 -144q0 -172 -41 -235q-34 -54 -99.5 -75.5t-171.5 -21.5q-100 0 -164 15q-66 15 -100 57q-52 62 -52 236zM316 1224q0 -146 16 -172q18 -22 41 -27 t83 -9q90 6 116 49q20 33 20 107v48v13q0 102 -16 139q-11 28 -38.5 36t-81.5 12q-52 -3 -77 -10.5t-43 -29.5q-20 -24 -20 -156z" />
<glyph unicode="&#xbb;" horiz-adv-x="1083" d="M104 131l232 432l-220 445l177 96l266 -541l-291 -535zM524 131l232 432l-220 445l176 96l269 -541l-293 -535z" />
<glyph unicode="&#xbc;" horiz-adv-x="2164" d="M112 1260l292 276h243v-920h-195v764l-239 -240zM508 0l968 1536h195l-975 -1536h-188zM1260 188v199l407 537h289v-584h80v-152h-80v-188h-192v188h-504zM1420 340h344v436h-9z" />
<glyph unicode="&#xbd;" horiz-adv-x="2164" d="M80 1260l297 276h239v-920h-192v764l-240 -240zM475 0l973 1536h192l-976 -1536h-189zM1372 0v176q0 143 60 201q31 27 76 42.5t93.5 24t98.5 17.5q44 8 82 16.5t56 22.5t26 43.5t8 89.5q0 85 -29 115q-21 24 -115 24q-69 0 -99.5 -6t-45.5 -35q-7 -16 -10 -36t-5 -55 t-4 -52h-192v40q0 122 35.5 185t108.5 85q74 24 208 26q140 0 214.5 -33t101 -93t28.5 -161q0 -173 -67 -233q-48 -38 -112.5 -54t-165.5 -31t-123 -30q-30 -29 -31 -101v-28h499v-160h-696z" />
<glyph unicode="&#xbe;" horiz-adv-x="2164" d="M64 932h196q0 -73 3 -97.5t17 -38.5q14 -15 36 -17.5t100 -2.5q132 0 164 20q24 22 24 84v36q0 100 -129 100h-119v160h144q52 0 72 22.5t20 89.5q0 60 -30 80t-97 20h-45q-96 0 -121 -20q-16 -15 -21.5 -38.5t-9.5 -86.5h-192q0 131 34 197t103 87t195 21q130 0 200 -14 t109 -49q71 -63 71 -185q-6 -188 -168 -208v-4q98 -10 139.5 -68t41.5 -184q-8 -85 -43.5 -132t-116.5 -67.5t-229 -20.5q-39 0 -68 -4q-136 8 -196 48q-52 41 -68 112.5t-16 159.5zM553 0l971 1536h192l-976 -1536h-187zM1284 188v199l408 537h288v-584h80v-152h-80v-188 h-192v188h-504zM1444 340h344v436h-8z" />
<glyph unicode="&#xbf;" horiz-adv-x="1220" d="M108 -41q0 106 20 172.5t52 101.5t84 66q26 16 88.5 40.5t91.5 38.5q30 14 60 38q28 25 36.5 53.5t8.5 110.5h260q0 -90 -4 -138t-23.5 -90.5t-64.5 -79t-125 -72.5q-66 -26 -105 -41t-66 -36t-42 -61t-15 -109q0 -139 48 -181q39 -30 188 -36q101 3 150.5 13.5 t77.5 37.5q28 37 28 157v56h260q0 -180 -31 -272t-98 -136q-60 -36 -144.5 -50t-209.5 -17q-10 0 -30.5 -1t-30.5 -1q-280 1 -376 113q-88 96 -88 323zM549 796v279h260v-279h-260z" />
<glyph unicode="&#xc0;" horiz-adv-x="1452" d="M-8 0l352 1065l160 471h432l524 -1536h-301l-98 289h-665l-99 -289h-305zM461 512h530l-264 801h-2zM541 1817l92 168l360 -236l-55 -108z" />
<glyph unicode="&#xc1;" horiz-adv-x="1452" d="M-8 0l352 1065l160 471h432l524 -1536h-301l-98 289h-665l-99 -289h-305zM461 512h530l-264 801h-2zM539 1745l364 240l92 -168l-399 -176z" />
<glyph unicode="&#xc2;" horiz-adv-x="1452" d="M-8 0l352 1065l160 471h432l524 -1536h-301l-98 289h-665l-99 -289h-305zM461 512h530l-264 801h-2zM361 1761l368 220l364 -220l-52 -104l-312 131l-315 -131z" />
<glyph unicode="&#xc3;" horiz-adv-x="1452" d="M-8 0l352 1065l160 471h432l524 -1536h-301l-98 289h-665l-99 -289h-305zM461 512h530l-264 801h-2zM328 1753q50 89 104 131.5t131 44.5q38 0 73 -15t84 -43.5t85 -43.5q35 -14 75 -14q58 0 115 92l129 -72q-102 -176 -236 -176q-59 0 -153 43q-55 32 -93 50.5t-70 18.5 q-38 0 -62 -20t-50 -68z" />
<glyph unicode="&#xc4;" horiz-adv-x="1452" d="M-8 0l352 1065l160 471h432l524 -1536h-301l-98 289h-665l-99 -289h-305zM461 512h530l-264 801h-2zM416 1704v185h204v-185h-204zM832 1704v185h204v-185h-204z" />
<glyph unicode="&#xc5;" horiz-adv-x="1452" d="M-8 0l352 1065l160 471h432l524 -1536h-301l-98 289h-665l-99 -289h-305zM461 512h530l-264 801h-2zM537 1848q0 48 24.5 91t69 70t98.5 27q52 0 95 -26t68 -70t25 -92q0 -49 -25 -93t-68 -70t-95 -26q-80 0 -134.5 54.5t-57.5 134.5zM629 1848q0 -38 29 -67.5t67 -29.5 q39 0 69.5 28.5t30.5 72.5q-3 40 -32 66t-68 26t-65.5 -26t-30.5 -70z" />
<glyph unicode="&#xc6;" horiz-adv-x="2169" d="M-37 0l729 1536h1397v-252h-749v-391h704v-225h-704v-416h749v-252h-1045v293h-612l-143 -293h-326zM524 516h520v768h-151z" />
<glyph unicode="&#xc7;" horiz-adv-x="1423" d="M76 756q0 198 5 299t29 184t78 153q53 65 141 99.5t186.5 45.5t211.5 11q128 0 209 -4.5t157.5 -25.5t126.5 -66q55 -50 81.5 -124t32.5 -145.5t6 -162.5h-292v96q0 94 -44 136q-46 44 -256 44h-44q-117 0 -176.5 -14t-95.5 -49q-64 -62 -64 -256v-401q0 -231 76 -283 q46 -36 107 -44.5t170 -8.5q131 0 176 4q79 16 119 53q18 18 28 45.5t13 55.5t5 71t3 80h291v-97v-36q0 -225 -113 -328q-100 -78 -303 -92q-72 -6 -176 -9t-121 -3q-319 0 -443 124q-58 59 -85 149.5t-33 197.5t-6 301zM548 -168l235 140l88 -128l-266 -108z" />
<glyph unicode="&#xc8;" horiz-adv-x="1267" d="M112 0v1536h1056v-252h-760v-385h720v-239h-720v-408h764v-252h-1060zM408 1817l92 168l360 -236l-55 -108z" />
<glyph unicode="&#xc9;" horiz-adv-x="1267" d="M112 0v1536h1056v-252h-760v-385h720v-239h-720v-408h764v-252h-1060zM449 1745l364 240l92 -168l-399 -176z" />
<glyph unicode="&#xca;" horiz-adv-x="1267" d="M112 0v1536h1056v-252h-760v-385h720v-239h-720v-408h764v-252h-1060zM268 1761l368 220l364 -220l-52 -104l-312 131l-315 -131z" />
<glyph unicode="&#xcb;" horiz-adv-x="1267" d="M112 0v1536h1056v-252h-760v-385h720v-239h-720v-408h764v-252h-1060zM324 1704v185h204v-185h-204zM740 1704v185h204v-185h-204z" />
<glyph unicode="&#xcc;" horiz-adv-x="563" d="M131 0v1536h297v-1536h-297zM56 1817l92 168l360 -236l-55 -108z" />
<glyph unicode="&#xcd;" horiz-adv-x="563" d="M131 0v1536h297v-1536h-297zM56 1745l364 240l92 -168l-399 -176z" />
<glyph unicode="&#xce;" horiz-adv-x="563" d="M131 0v1536h297v-1536h-297zM-84 1761l368 220l364 -220l-52 -104l-312 131l-315 -131z" />
<glyph unicode="&#xcf;" horiz-adv-x="563" d="M131 0v1536h297v-1536h-297zM-67 1704v185h204v-185h-204zM349 1704v185h204v-185h-204z" />
<glyph unicode="&#xd0;" horiz-adv-x="1544" d="M-60 680v219h189v637h735q412 0 528 -219q72 -135 72 -373l4 -332q0 -406 -235 -544q-54 -32 -141.5 -50t-167.5 -18h-795v680h-189zM424 252h444q96 0 150 24t94 80q56 89 56 291v109v172q0 134 -19.5 206t-89 111t-215.5 39h-420v-381h256v-223h-256v-428z" />
<glyph unicode="&#xd1;" horiz-adv-x="1691" d="M131 0v1536h489l660 -1284h8l-24 1284h296v-1536h-493l-651 1284h-12l16 -637l8 -647h-297zM449 1753q50 89 104 131.5t131 44.5q38 0 73 -15t84 -43.5t85 -43.5q35 -14 75 -14q58 0 115 92l129 -72q-102 -176 -236 -176q-59 0 -153 43q-55 32 -93 50.5t-70 18.5 q-38 0 -62 -20t-50 -68z" />
<glyph unicode="&#xd2;" horiz-adv-x="1464" d="M80 553v420q0 134 17 237.5t71 181.5q50 70 142.5 105t191 43t225.5 8q120 0 223.5 -9.5t197.5 -45t140 -105.5q24 -26 60 -117t36 -267v-496q0 -139 -26 -215q-26 -75 -74 -145q-53 -73 -150 -108.5t-199.5 -43.5t-246.5 -8q-176 0 -296 25t-196 108q-116 116 -116 432z M368 991q4 -18 4 -47v-364q0 -188 44 -260q36 -54 103 -67t206 -17q135 3 204 20.5t107 63.5q22 33 37 96.5t15 136.5v407v56q0 146 -52 208q-50 54 -160 68q-68 4 -145 4q-143 0 -220 -20.5t-103 -79.5q-30 -67 -40 -205zM504 1817l92 168l360 -236l-55 -108z" />
<glyph unicode="&#xd3;" horiz-adv-x="1464" d="M80 553v420q0 134 17 237.5t71 181.5q50 70 142.5 105t191 43t225.5 8q120 0 223.5 -9.5t197.5 -45t140 -105.5q24 -26 60 -117t36 -267v-496q0 -139 -26 -215q-26 -75 -74 -145q-53 -73 -150 -108.5t-199.5 -43.5t-246.5 -8q-176 0 -296 25t-196 108q-116 116 -116 432z M368 991q4 -18 4 -47v-364q0 -188 44 -260q36 -54 103 -67t206 -17q135 3 204 20.5t107 63.5q22 33 37 96.5t15 136.5v407v56q0 146 -52 208q-50 54 -160 68q-68 4 -145 4q-143 0 -220 -20.5t-103 -79.5q-30 -67 -40 -205zM504 1745l364 240l92 -168l-399 -176z" />
<glyph unicode="&#xd4;" horiz-adv-x="1464" d="M80 553v420q0 134 17 237.5t71 181.5q50 70 142.5 105t191 43t225.5 8q120 0 223.5 -9.5t197.5 -45t140 -105.5q24 -26 60 -117t36 -267v-496q0 -139 -26 -215q-26 -75 -74 -145q-53 -73 -150 -108.5t-199.5 -43.5t-246.5 -8q-176 0 -296 25t-196 108q-116 116 -116 432z M368 991q4 -18 4 -47v-364q0 -188 44 -260q36 -54 103 -67t206 -17q135 3 204 20.5t107 63.5q22 33 37 96.5t15 136.5v407v56q0 146 -52 208q-50 54 -160 68q-68 4 -145 4q-143 0 -220 -20.5t-103 -79.5q-30 -67 -40 -205zM367 1761l368 220l364 -220l-52 -104l-312 131 l-315 -131z" />
<glyph unicode="&#xd5;" horiz-adv-x="1464" d="M80 553v420q0 134 17 237.5t71 181.5q50 70 142.5 105t191 43t225.5 8q120 0 223.5 -9.5t197.5 -45t140 -105.5q24 -26 60 -117t36 -267v-496q0 -139 -26 -215q-26 -75 -74 -145q-53 -73 -150 -108.5t-199.5 -43.5t-246.5 -8q-176 0 -296 25t-196 108q-116 116 -116 432z M368 991q4 -18 4 -47v-364q0 -188 44 -260q36 -54 103 -67t206 -17q135 3 204 20.5t107 63.5q22 33 37 96.5t15 136.5v407v56q0 146 -52 208q-50 54 -160 68q-68 4 -145 4q-143 0 -220 -20.5t-103 -79.5q-30 -67 -40 -205zM336 1753q50 89 104 131.5t131 44.5q38 0 73 -15 t84 -43.5t85 -43.5q35 -14 75 -14q58 0 115 92l129 -72q-102 -176 -236 -176q-59 0 -153 43q-55 32 -93 50.5t-70 18.5q-38 0 -62 -20t-50 -68z" />
<glyph unicode="&#xd6;" horiz-adv-x="1464" d="M80 553v420q0 134 17 237.5t71 181.5q50 70 142.5 105t191 43t225.5 8q120 0 223.5 -9.5t197.5 -45t140 -105.5q24 -26 60 -117t36 -267v-496q0 -139 -26 -215q-26 -75 -74 -145q-53 -73 -150 -108.5t-199.5 -43.5t-246.5 -8q-176 0 -296 25t-196 108q-116 116 -116 432z M368 991q4 -18 4 -47v-364q0 -188 44 -260q36 -54 103 -67t206 -17q135 3 204 20.5t107 63.5q22 33 37 96.5t15 136.5v407v56q0 146 -52 208q-50 54 -160 68q-68 4 -145 4q-143 0 -220 -20.5t-103 -79.5q-30 -67 -40 -205zM420 1704v185h204v-185h-204zM836 1704v185h204 v-185h-204z" />
<glyph unicode="&#xd8;" horiz-adv-x="1544" d="M0 -51v223l125 112q-20 82 -26.5 181t-10.5 256q4 34 4 94q0 221 19 361t94 225q128 139 563 147h76q172 0 296 -33t196 -114l208 186v-231l-120 -113q32 -89 32 -331v-160q0 -472 -116 -612q-58 -68 -156 -100.5t-196 -40.5q-98 -7 -257 -11q-136 0 -219.5 7t-161.5 39 t-137 101zM387 520l729 684q-40 56 -115.5 74t-181.5 18h-92q-234 0 -295 -104q-22 -36 -33.5 -80t-11.5 -148v-444zM432 328q14 -36 58 -56t111 -26t163 -6q266 0 328 67q42 46 54.5 120t12.5 177v37v367z" />
<glyph unicode="&#xd9;" horiz-adv-x="1544" d="M131 444v1092h297v-1116q0 -55 12 -83.5t48 -52.5q44 -30 102 -37t162 -7q37 0 53 -4q108 4 164.5 14t95.5 43q34 28 42.5 64.5t8.5 117.5v1061h295v-1100q0 -242 -135 -352q-82 -64 -218 -80t-331 -16q-142 0 -243.5 13t-184.5 59q-86 50 -127 152t-41 232zM547 1817 l92 168l360 -236l-55 -108z" />
<glyph unicode="&#xda;" horiz-adv-x="1544" d="M131 444v1092h297v-1116q0 -55 12 -83.5t48 -52.5q44 -30 102 -37t162 -7q37 0 53 -4q108 4 164.5 14t95.5 43q34 28 42.5 64.5t8.5 117.5v1061h295v-1100q0 -242 -135 -352q-82 -64 -218 -80t-331 -16q-142 0 -243.5 13t-184.5 59q-86 50 -127 152t-41 232zM543 1745 l364 240l92 -168l-399 -176z" />
<glyph unicode="&#xdb;" horiz-adv-x="1544" d="M131 444v1092h297v-1116q0 -55 12 -83.5t48 -52.5q44 -30 102 -37t162 -7q37 0 53 -4q108 4 164.5 14t95.5 43q34 28 42.5 64.5t8.5 117.5v1061h295v-1100q0 -242 -135 -352q-82 -64 -218 -80t-331 -16q-142 0 -243.5 13t-184.5 59q-86 50 -127 152t-41 232zM408 1761 l368 220l364 -220l-52 -104l-312 131l-315 -131z" />
<glyph unicode="&#xdc;" horiz-adv-x="1544" d="M131 444v1092h297v-1116q0 -55 12 -83.5t48 -52.5q44 -30 102 -37t162 -7q37 0 53 -4q108 4 164.5 14t95.5 43q34 28 42.5 64.5t8.5 117.5v1061h295v-1100q0 -242 -135 -352q-82 -64 -218 -80t-331 -16q-142 0 -243.5 13t-184.5 59q-86 50 -127 152t-41 232zM459 1704 v185h204v-185h-204zM875 1704v185h204v-185h-204z" />
<glyph unicode="&#xdd;" horiz-adv-x="1372" d="M-24 1536h336l364 -656h8l373 656h339l-568 -948v-588h-296v588zM496 1745l364 240l92 -168l-399 -176z" />
<glyph unicode="&#xde;" horiz-adv-x="1405" d="M116 0v1536h292v-248h376q112 0 201 -9.5t174 -51t125 -127.5q60 -128 60 -344q0 -270 -97 -388q-99 -120 -411 -120h-428v-248h-292zM408 500h376q154 0 203 40q37 27 49 76.5t12 139.5q0 146 -32 204q-44 76 -224 76h-384v-536z" />
<glyph unicode="&#xdf;" horiz-adv-x="1239" d="M135 0v1112q1 248 97 344q92 92 388 92q249 0 357 -76q53 -42 78 -106.5t25 -132.5q-3 -116 -66.5 -188.5t-181.5 -88.5v-4q198 -10 257.5 -126.5t63.5 -305.5q0 -204 -48.5 -322t-137.5 -164t-219 -46q-104 0 -232 40v208q69 -32 99.5 -42t80.5 -10q110 0 153.5 94 t43.5 218q0 120 -12.5 191.5t-66 119t-167.5 49.5h-84v176q29 0 41 -4q71 4 107.5 11.5t64.5 31.5q60 44 60 166q0 49 -36 79.5t-87 43t-101 12.5q-75 0 -119.5 -11.5t-70.5 -53t-26 -127.5v-1180h-261z" />
<glyph unicode="&#xe0;" horiz-adv-x="1208" d="M88 324q0 186 92 260q90 76 308 76q80 0 136 -6.5t108 -34t77 -83.5h10v164q-1 104 -23 144q-17 30 -56 49t-148 19q-86 -4 -112 -8t-56 -28q-37 -35 -37 -116h-258q1 196 111 268q94 60 305 60h35q305 0 403 -88q92 -84 92 -288v-712h-256l13 131l-8 4 q-34 -94 -117 -120.5t-228 -26.5q-228 0 -311 88q-80 77 -80 248zM344 328q0 -68 24 -113q19 -30 65.5 -40.5t134.5 -10.5q96 0 146 11t78 48q26 44 27 109q0 92 -65 122q-64 30 -170 30q-104 -5 -143 -11.5t-64 -36.5q-33 -36 -33 -108zM375 1352l92 168l360 -236l-55 -108 z" />
<glyph unicode="&#xe1;" horiz-adv-x="1208" d="M88 324q0 186 92 260q90 76 308 76q80 0 136 -6.5t108 -34t77 -83.5h10v164q-1 104 -23 144q-17 30 -56 49t-148 19q-86 -4 -112 -8t-56 -28q-37 -35 -37 -116h-258q1 196 111 268q94 60 305 60h35q305 0 403 -88q92 -84 92 -288v-712h-256l13 131l-8 4 q-34 -94 -117 -120.5t-228 -26.5q-228 0 -311 88q-80 77 -80 248zM344 328q0 -68 24 -113q19 -30 65.5 -40.5t134.5 -10.5q96 0 146 11t78 48q26 44 27 109q0 92 -65 122q-64 30 -170 30q-104 -5 -143 -11.5t-64 -36.5q-33 -36 -33 -108zM416 1284l364 240l92 -168 l-399 -176z" />
<glyph unicode="&#xe2;" horiz-adv-x="1208" d="M88 324q0 186 92 260q90 76 308 76q80 0 136 -6.5t108 -34t77 -83.5h10v164q-1 104 -23 144q-17 30 -56 49t-148 19q-86 -4 -112 -8t-56 -28q-37 -35 -37 -116h-258q1 196 111 268q94 60 305 60h35q305 0 403 -88q92 -84 92 -288v-712h-256l13 131l-8 4 q-34 -94 -117 -120.5t-228 -26.5q-228 0 -311 88q-80 77 -80 248zM344 328q0 -68 24 -113q19 -30 65.5 -40.5t134.5 -10.5q96 0 146 11t78 48q26 44 27 109q0 92 -65 122q-64 30 -170 30q-104 -5 -143 -11.5t-64 -36.5q-33 -36 -33 -108zM240 1300l368 220l364 -220 l-52 -104l-312 131l-315 -131z" />
<glyph unicode="&#xe3;" horiz-adv-x="1208" d="M88 324q0 186 92 260q90 76 308 76q80 0 136 -6.5t108 -34t77 -83.5h10v164q-1 104 -23 144q-17 30 -56 49t-148 19q-86 -4 -112 -8t-56 -28q-37 -35 -37 -116h-258q1 196 111 268q94 60 305 60h35q305 0 403 -88q92 -84 92 -288v-712h-256l13 131l-8 4 q-34 -94 -117 -120.5t-228 -26.5q-228 0 -311 88q-80 77 -80 248zM344 328q0 -68 24 -113q19 -30 65.5 -40.5t134.5 -10.5q96 0 146 11t78 48q26 44 27 109q0 92 -65 122q-64 30 -170 30q-104 -5 -143 -11.5t-64 -36.5q-33 -36 -33 -108zM203 1292q50 89 104 131.5t131 44.5 q38 0 73 -15t84 -43.5t85 -43.5q35 -14 75 -14q58 0 115 92l129 -72q-102 -176 -236 -176q-59 0 -153 43q-55 32 -93 50.5t-70 18.5q-38 0 -62 -20t-50 -68z" />
<glyph unicode="&#xe4;" horiz-adv-x="1208" d="M88 324q0 186 92 260q90 76 308 76q80 0 136 -6.5t108 -34t77 -83.5h10v164q-1 104 -23 144q-17 30 -56 49t-148 19q-86 -4 -112 -8t-56 -28q-37 -35 -37 -116h-258q1 196 111 268q94 60 305 60h35q305 0 403 -88q92 -84 92 -288v-712h-256l13 131l-8 4 q-34 -94 -117 -120.5t-228 -26.5q-228 0 -311 88q-80 77 -80 248zM344 328q0 -68 24 -113q19 -30 65.5 -40.5t134.5 -10.5q96 0 146 11t78 48q26 44 27 109q0 92 -65 122q-64 30 -170 30q-104 -5 -143 -11.5t-64 -36.5q-33 -36 -33 -108zM291 1243v185h204v-185h-204z M707 1243v185h204v-185h-204z" />
<glyph unicode="&#xe5;" horiz-adv-x="1208" d="M88 324q0 186 92 260q90 76 308 76q80 0 136 -6.5t108 -34t77 -83.5h10v164q-1 104 -23 144q-17 30 -56 49t-148 19q-86 -4 -112 -8t-56 -28q-37 -35 -37 -116h-258q1 196 111 268q94 60 305 60h35q305 0 403 -88q92 -84 92 -288v-712h-256l13 131l-8 4 q-34 -94 -117 -120.5t-228 -26.5q-228 0 -311 88q-80 77 -80 248zM344 328q0 -68 24 -113q19 -30 65.5 -40.5t134.5 -10.5q96 0 146 11t78 48q26 44 27 109q0 92 -65 122q-64 30 -170 30q-104 -5 -143 -11.5t-64 -36.5q-33 -36 -33 -108zM416 1344q0 48 24.5 91t69 70 t98.5 27q52 0 95 -26t68 -70t25 -92q0 -49 -25 -93t-68 -70t-95 -26q-80 0 -134.5 54.5t-57.5 134.5zM508 1344q0 -38 29 -67.5t67 -29.5q39 0 69.5 28.5t30.5 72.5q-3 40 -32 66t-68 26t-65.5 -26t-30.5 -70z" />
<glyph unicode="&#xe6;" horiz-adv-x="1884" d="M76 332q0 184 100 256q99 72 340 72q114 0 184 -27t101 -101l8 -4v148q-1 120 -17 156q-20 47 -65 61.5t-143 18.5q-96 0 -151.5 -31t-55.5 -117h-256q0 178 92 252q64 46 155.5 59t211.5 13q158 0 249 -29t119 -111h4q30 82 126 111t239 29q58 0 133.5 -9t141.5 -29 t100 -50q64 -58 88 -171t24 -229l4 -112h-741v-44q0 -117 16.5 -166.5t69.5 -68.5q24 -11 45.5 -16t58 -6t60.5 -3q91 0 133 9t70 39q28 41 28 112h260q0 -176 -76 -264q-49 -52 -128.5 -70t-219.5 -22q-70 1 -142 2.5t-135 14t-115 49.5q-50 36 -72 102h-8 q-26 -72 -85 -108t-128 -47t-163 -13q-171 0 -267.5 26t-143.5 100t-49 218zM336 328q0 -72 20 -109q24 -37 69 -46t143 -9q92 0 141 12q49 14 75 52q24 39 25 108q0 90 -66 119q-65 29 -171 29q-156 0 -200 -44q-36 -36 -36 -112zM1065 688q2 -12 2 -36h481v36 q0 118 -36 160q-29 45 -189 45h-27q-148 0 -192 -45q-35 -40 -39 -160z" />
<glyph unicode="&#xe7;" horiz-adv-x="1128" d="M92 524q0 192 20 282t72 158q62 76 154 98t238 26q118 0 219 -18.5t149 -53.5q70 -50 95.5 -139t25.5 -181h-256q0 100 -33 140q-38 58 -200 57q-147 1 -189 -65q-23 -36 -29 -76q-6 -42 -10 -128q4 -20 4 -65q0 -93 -4 -147q3 -16 7.5 -62t12.5 -74q10 -28 32 -53 q26 -24 57 -31.5t96 -11.5q14 4 39 4q81 0 115.5 8t60.5 31q37 37 37 149v36h260q-1 -254 -105 -340q-100 -80 -376 -80q-154 0 -242 18t-150 82q-42 45 -64 103t-29 135.5t-7 197.5zM404 -168l235 140l88 -128l-266 -108z" />
<glyph unicode="&#xe8;" horiz-adv-x="1167" d="M84 553q0 320 108 428q110 107 388 107q294 -10 380 -88q55 -48 81.5 -130t32.5 -159t10 -223h-740q0 -35 -4 -60q4 -84 17 -137.5t51 -75.5q42 -20 76 -25.5t112 -5.5q88 0 124 6t64 29q40 32 40 121h260q0 -196 -101 -280q-56 -45 -148.5 -58.5t-238.5 -13.5 q-95 0 -170.5 8t-140 33t-105.5 71q-61 72 -78.5 186.5t-17.5 266.5zM344 652h480q0 158 -36 196q-15 16 -39.5 25t-54.5 13t-58 5l-56 2q-82 -4 -129 -13t-70 -36q-24 -26 -30.5 -71t-6.5 -121zM356 1352l92 168l360 -236l-55 -108z" />
<glyph unicode="&#xe9;" horiz-adv-x="1167" d="M84 553q0 320 108 428q110 107 388 107q294 -10 380 -88q55 -48 81.5 -130t32.5 -159t10 -223h-740q0 -35 -4 -60q4 -84 17 -137.5t51 -75.5q42 -20 76 -25.5t112 -5.5q88 0 124 6t64 29q40 32 40 121h260q0 -196 -101 -280q-56 -45 -148.5 -58.5t-238.5 -13.5 q-95 0 -170.5 8t-140 33t-105.5 71q-61 72 -78.5 186.5t-17.5 266.5zM344 652h480q0 158 -36 196q-15 16 -39.5 25t-54.5 13t-58 5l-56 2q-82 -4 -129 -13t-70 -36q-24 -26 -30.5 -71t-6.5 -121zM400 1284l364 240l92 -168l-399 -176z" />
<glyph unicode="&#xea;" horiz-adv-x="1167" d="M84 553q0 320 108 428q110 107 388 107q294 -10 380 -88q55 -48 81.5 -130t32.5 -159t10 -223h-740q0 -35 -4 -60q4 -84 17 -137.5t51 -75.5q42 -20 76 -25.5t112 -5.5q88 0 124 6t64 29q40 32 40 121h260q0 -196 -101 -280q-56 -45 -148.5 -58.5t-238.5 -13.5 q-95 0 -170.5 8t-140 33t-105.5 71q-61 72 -78.5 186.5t-17.5 266.5zM344 652h480q0 158 -36 196q-15 16 -39.5 25t-54.5 13t-58 5l-56 2q-82 -4 -129 -13t-70 -36q-24 -26 -30.5 -71t-6.5 -121zM216 1300l368 220l364 -220l-52 -104l-312 131l-315 -131z" />
<glyph unicode="&#xeb;" horiz-adv-x="1167" d="M84 553q0 320 108 428q110 107 388 107q294 -10 380 -88q55 -48 81.5 -130t32.5 -159t10 -223h-740q0 -35 -4 -60q4 -84 17 -137.5t51 -75.5q42 -20 76 -25.5t112 -5.5q88 0 124 6t64 29q40 32 40 121h260q0 -196 -101 -280q-56 -45 -148.5 -58.5t-238.5 -13.5 q-95 0 -170.5 8t-140 33t-105.5 71q-61 72 -78.5 186.5t-17.5 266.5zM344 652h480q0 158 -36 196q-15 16 -39.5 25t-54.5 13t-58 5l-56 2q-82 -4 -129 -13t-70 -36q-24 -26 -30.5 -71t-6.5 -121zM272 1239v185h204v-185h-204zM688 1239v185h204v-185h-204z" />
<glyph unicode="&#xec;" horiz-adv-x="483" d="M112 0v1075h260v-1075h-260zM16 1352l92 168l360 -236l-55 -108z" />
<glyph unicode="&#xed;" horiz-adv-x="483" d="M112 0v1075h260v-1075h-260zM17 1284l364 240l92 -168l-399 -176z" />
<glyph unicode="&#xee;" horiz-adv-x="483" d="M112 0v1075h260v-1075h-260zM-124 1300l368 220l364 -220l-52 -104l-312 131l-315 -131z" />
<glyph unicode="&#xef;" horiz-adv-x="483" d="M112 0v1075h260v-1075h-260zM-67 1239v185h204v-185h-204zM349 1239v185h204v-185h-204z" />
<glyph unicode="&#xf0;" horiz-adv-x="1192" d="M88 484q4 32 4 84q0 102 4.5 166t25 127.5t62.5 111.5q46 50 119 75t142.5 31.5t197.5 12.5q-40 42 -101 90q-62 48 -122 74l-140 -124l-84 88l101 88q-95 34 -185 60l68 180q159 -41 281 -100l115 100l88 -88l-84 -72q90 -46 166.5 -105t138 -125.5t106.5 -133.5 q113 -162 113 -500q-4 -172 -22 -270.5t-78 -161.5q-56 -62 -164 -83t-256 -21q-94 4 -160 10t-134 32q-68 24 -110 74q-48 58 -68 153t-24 227zM344 592q4 -12 4 -33q0 -126 8 -200.5t40 -114.5q46 -60 180 -60q176 0 225 56q43 66 43 229v86q0 112 -9 181.5t-43 103.5 q-54 54 -196 53q-154 1 -200 -61q-42 -50 -52 -240z" />
<glyph unicode="&#xf1;" horiz-adv-x="1224" d="M125 0v1075h260v-163h6q28 79 83.5 117.5t115.5 48.5t141 10q150 -2 230.5 -45.5t109.5 -124t29 -210.5v-708h-260v676q0 82 -15.5 128t-58 67.5t-125.5 21.5q-139 1 -201 -65q-30 -29 -42.5 -85.5t-12.5 -158.5v-584h-260zM216 1292q50 89 104 131.5t131 44.5 q38 0 73 -15t84 -43.5t85 -43.5q35 -14 75 -14q58 0 115 92l129 -72q-102 -176 -236 -176q-59 0 -153 43q-55 32 -93 50.5t-70 18.5q-38 0 -62 -20t-50 -68z" />
<glyph unicode="&#xf2;" horiz-adv-x="1192" d="M88 504q0 166 15 280t69 180q98 124 424 124q94 0 167 -8t133 -30t104 -63q68 -66 84 -166.5t20 -288.5q0 -169 -20 -282.5t-97 -177.5q-68 -52 -165 -68t-230 -16q-100 0 -177 8t-144.5 38t-106.5 87q-76 109 -76 383zM348 532q0 -110 6.5 -175.5t30.5 -104.5 q26 -44 79.5 -56t131.5 -12q72 0 124 10t81 46q28 42 35.5 102t7.5 190q0 113 -7 187.5t-36 112.5q-28 37 -75.5 46.5t-129.5 14.5q-80 -5 -125 -14t-75 -43q-32 -34 -40 -108t-8 -196zM369 1352l92 168l360 -236l-55 -108z" />
<glyph unicode="&#xf3;" horiz-adv-x="1192" d="M88 504q0 166 15 280t69 180q98 124 424 124q94 0 167 -8t133 -30t104 -63q68 -66 84 -166.5t20 -288.5q0 -169 -20 -282.5t-97 -177.5q-68 -52 -165 -68t-230 -16q-100 0 -177 8t-144.5 38t-106.5 87q-76 109 -76 383zM348 532q0 -110 6.5 -175.5t30.5 -104.5 q26 -44 79.5 -56t131.5 -12q72 0 124 10t81 46q28 42 35.5 102t7.5 190q0 113 -7 187.5t-36 112.5q-28 37 -75.5 46.5t-129.5 14.5q-80 -5 -125 -14t-75 -43q-32 -34 -40 -108t-8 -196zM367 1284l364 240l92 -168l-399 -176z" />
<glyph unicode="&#xf4;" horiz-adv-x="1192" d="M88 504q0 166 15 280t69 180q98 124 424 124q94 0 167 -8t133 -30t104 -63q68 -66 84 -166.5t20 -288.5q0 -169 -20 -282.5t-97 -177.5q-68 -52 -165 -68t-230 -16q-100 0 -177 8t-144.5 38t-106.5 87q-76 109 -76 383zM348 532q0 -110 6.5 -175.5t30.5 -104.5 q26 -44 79.5 -56t131.5 -12q72 0 124 10t81 46q28 42 35.5 102t7.5 190q0 113 -7 187.5t-36 112.5q-28 37 -75.5 46.5t-129.5 14.5q-80 -5 -125 -14t-75 -43q-32 -34 -40 -108t-8 -196zM232 1300l368 220l364 -220l-52 -104l-312 131l-315 -131z" />
<glyph unicode="&#xf5;" horiz-adv-x="1192" d="M88 504q0 166 15 280t69 180q98 124 424 124q94 0 167 -8t133 -30t104 -63q68 -66 84 -166.5t20 -288.5q0 -169 -20 -282.5t-97 -177.5q-68 -52 -165 -68t-230 -16q-100 0 -177 8t-144.5 38t-106.5 87q-76 109 -76 383zM348 532q0 -110 6.5 -175.5t30.5 -104.5 q26 -44 79.5 -56t131.5 -12q72 0 124 10t81 46q28 42 35.5 102t7.5 190q0 113 -7 187.5t-36 112.5q-28 37 -75.5 46.5t-129.5 14.5q-80 -5 -125 -14t-75 -43q-32 -34 -40 -108t-8 -196zM199 1292q50 89 104 131.5t131 44.5q38 0 73 -15t84 -43.5t85 -43.5q35 -14 75 -14 q58 0 115 92l129 -72q-102 -176 -236 -176q-59 0 -153 43q-55 32 -93 50.5t-70 18.5q-38 0 -62 -20t-50 -68z" />
<glyph unicode="&#xf6;" horiz-adv-x="1192" d="M88 504q0 166 15 280t69 180q98 124 424 124q94 0 167 -8t133 -30t104 -63q68 -66 84 -166.5t20 -288.5q0 -169 -20 -282.5t-97 -177.5q-68 -52 -165 -68t-230 -16q-100 0 -177 8t-144.5 38t-106.5 87q-76 109 -76 383zM348 532q0 -110 6.5 -175.5t30.5 -104.5 q26 -44 79.5 -56t131.5 -12q72 0 124 10t81 46q28 42 35.5 102t7.5 190q0 113 -7 187.5t-36 112.5q-28 37 -75.5 46.5t-129.5 14.5q-80 -5 -125 -14t-75 -43q-32 -34 -40 -108t-8 -196zM285 1239v185h204v-185h-204zM701 1239v185h204v-185h-204z" />
<glyph unicode="&#xf8;" horiz-adv-x="1192" d="M4 -43v164l117 98q-26 79 -33 233q4 39 4 111q0 176 22 277q20 102 82 156q68 61 169 76.5t251 15.5q318 0 404 -120l172 136v-164l-112 -88q24 -86 24 -211v-113q0 -172 -22 -270q-20 -98 -78 -162q-61 -64 -165.5 -86t-258.5 -22q-140 0 -242 24q-101 22 -158 96z M348 532q4 -44 4 -128l467 407q-16 48 -68.5 65t-146.5 17q-84 0 -129 -7.5t-75 -41.5q-42 -50 -48 -180q0 -84 -4 -132zM385 264q10 -52 57.5 -66t120.5 -14h37q70 0 105 5t67 26q62 47 68 229q4 76 4 224z" />
<glyph unicode="&#xf9;" horiz-adv-x="1216" d="M125 289v786h260v-703q0 -58 6 -93t29 -56q24 -21 51 -30t97 -9q79 0 126.5 15t85.5 61q48 60 48 188v627h256v-1075h-248v164h-8q-70 -176 -344 -176q-358 0 -359 301zM296 1352l92 168l360 -236l-55 -108z" />
<glyph unicode="&#xfa;" horiz-adv-x="1216" d="M125 289v786h260v-703q0 -58 6 -93t29 -56q24 -21 51 -30t97 -9q79 0 126.5 15t85.5 61q48 60 48 188v627h256v-1075h-248v164h-8q-70 -176 -344 -176q-358 0 -359 301zM404 1284l364 240l92 -168l-399 -176z" />
<glyph unicode="&#xfb;" horiz-adv-x="1216" d="M125 289v786h260v-703q0 -58 6 -93t29 -56q24 -21 51 -30t97 -9q79 0 126.5 15t85.5 61q48 60 48 188v627h256v-1075h-248v164h-8q-70 -176 -344 -176q-358 0 -359 301zM199 1300l368 220l364 -220l-52 -104l-312 131l-315 -131z" />
<glyph unicode="&#xfc;" horiz-adv-x="1216" d="M125 289v786h260v-703q0 -58 6 -93t29 -56q24 -21 51 -30t97 -9q79 0 126.5 15t85.5 61q48 60 48 188v627h256v-1075h-248v164h-8q-70 -176 -344 -176q-358 0 -359 301zM296 1239v185h204v-185h-204zM712 1239v185h204v-185h-204z" />
<glyph unicode="&#xfd;" horiz-adv-x="991" d="M-12 1075h268l272 -915h4l208 915h264l-152 -604l-148 -600q-28 -114 -70 -190.5t-114 -116.5q-74 -39 -213 -39q-72 0 -102 4v195q9 0 28 -2t27 -2q100 0 142 69t67 211h-125l-176 536zM292 1284l364 240l92 -168l-399 -176z" />
<glyph unicode="&#xfe;" horiz-adv-x="1220" d="M125 -465v2005h260v-624h2q44 98 120.5 135t204.5 37q224 0 312 -97q69 -72 86.5 -176t17.5 -260v-84q0 -391 -229 -459q-79 -24 -187 -24q-112 0 -195.5 32t-125.5 124h-6v-609h-260zM381 456q4 -74 11.5 -115t31.5 -77q31 -47 81.5 -61.5t131.5 -18.5q141 0 187 64 q48 66 48 256v51q0 211 -48 273q-50 66 -183 65q-164 0 -213 -74q-40 -50 -47 -219q4 -24 4 -72q0 -46 -4 -72z" />
<glyph unicode="&#xff;" horiz-adv-x="991" d="M-12 1075h268l272 -915h4l208 915h264l-152 -604l-148 -600q-28 -114 -70 -190.5t-114 -116.5q-74 -39 -213 -39q-72 0 -102 4v195q9 0 28 -2t27 -2q100 0 142 69t67 211h-125l-176 536zM184 1239v185h204v-185h-204zM600 1239v185h204v-185h-204z" />
<glyph unicode="&#x131;" horiz-adv-x="483" d="M112 0v1075h260v-1075h-260z" />
<glyph unicode="&#x152;" horiz-adv-x="2263" d="M80 580v380q0 138 21.5 242t78.5 178q80 104 219 136t326 32q165 0 275 -37.5t155 -146.5h9l-9 172h1028v-252h-751v-391h712v-225h-712v-416h756v-252h-1033l9 164h-9q-46 -79 -117.5 -117.5t-154.5 -48.5t-203 -10q-108 2 -193.5 13t-159 41t-127.5 87 q-71 73 -95.5 184t-24.5 267zM377 559q0 -188 47 -252q23 -28 71.5 -43.5t94.5 -19.5t135 -8q14 4 35 4q124 0 202 15t118 61q56 62 56 243v369q0 234 -56 301q-64 67 -288 67h-48q-119 0 -204.5 -16t-127.5 -72q-24 -36 -29.5 -93t-5.5 -155v-401z" />
<glyph unicode="&#x153;" horiz-adv-x="1908" d="M80 600q3 48 6 98.5t10.5 97t24.5 89.5t47 79q98 124 404 124q158 0 257 -28t131 -120h4q38 88 123 116t226 32q290 0 391 -84q46 -38 72 -102t36.5 -135.5t13 -155t3.5 -123.5h-741q0 -43 -4 -64q5 -126 32 -164q22 -40 66 -58t158 -18q92 4 126 9t62 26q41 42 41 125 h260q0 -190 -84 -268q-54 -52 -138.5 -68t-230.5 -20h-47q-96 0 -161.5 8.5t-121.5 41.5q-56 34 -82 102h-8q-34 -70 -90 -103.5t-114 -41t-140 -7.5q-163 0 -276.5 23t-171.5 105q-47 65 -60.5 137.5t-15.5 184.5t-8 162zM340 540q0 -222 41 -288q24 -42 75 -55 q52 -13 124 -13q73 0 125.5 10t78.5 46q29 40 36 110q8 70 8 186v52q0 204 -36 252q-36 42 -96 49q-40 4 -112 4q-28 -2 -56 -3t-54 -5.5t-49.5 -14.5t-39.5 -30q-29 -33 -37 -106.5t-8 -193.5zM1088 652h481q0 154 -37 196q-36 45 -180 45h-29q-153 0 -195 -45 q-27 -24 -33.5 -69t-6.5 -127z" />
<glyph unicode="&#x178;" horiz-adv-x="1372" d="M376 1671v185h204v-185h-204zM792 1671v185h204v-185h-204zM-24 1536h336l364 -656h8l373 656h339l-568 -948v-588h-296v588z" />
<glyph unicode="&#x2c6;" horiz-adv-x="1036" d="M152 1300l368 220l364 -220l-52 -104l-312 131l-315 -131z" />
<glyph unicode="&#x2da;" horiz-adv-x="684" d="M152 1344q0 48 24.5 91t69 70t98.5 27q52 0 95 -26t68 -70t25 -92q0 -49 -25 -93t-68 -70t-95 -26q-80 0 -134.5 54.5t-57.5 134.5zM244 1344q0 -38 29 -67.5t67 -29.5q39 0 69.5 28.5t30.5 72.5q-3 40 -32 66t-68 26t-65.5 -26t-30.5 -70z" />
<glyph unicode="&#x2dc;" horiz-adv-x="1100" d="M152 1292q50 89 104 131.5t131 44.5q38 0 73 -15t84 -43.5t85 -43.5q35 -14 75 -14q58 0 115 92l129 -72q-102 -176 -236 -176q-59 0 -153 43q-55 32 -93 50.5t-70 18.5q-38 0 -62 -20t-50 -68z" />
<glyph unicode="&#x2000;" horiz-adv-x="1018" />
<glyph unicode="&#x2001;" horiz-adv-x="2036" />
<glyph unicode="&#x2002;" horiz-adv-x="1018" />
<glyph unicode="&#x2003;" horiz-adv-x="2036" />
<glyph unicode="&#x2004;" horiz-adv-x="678" />
<glyph unicode="&#x2005;" horiz-adv-x="509" />
<glyph unicode="&#x2006;" horiz-adv-x="339" />
<glyph unicode="&#x2007;" horiz-adv-x="339" />
<glyph unicode="&#x2008;" horiz-adv-x="254" />
<glyph unicode="&#x2009;" horiz-adv-x="407" />
<glyph unicode="&#x200a;" horiz-adv-x="113" />
<glyph unicode="&#x2010;" horiz-adv-x="545" d="M0 465v199h545v-199h-545z" />
<glyph unicode="&#x2011;" horiz-adv-x="545" d="M0 465v199h545v-199h-545z" />
<glyph unicode="&#x2012;" horiz-adv-x="545" d="M0 465v199h545v-199h-545z" />
<glyph unicode="&#x2013;" horiz-adv-x="1024" d="M0 469v195h1024v-195h-1024z" />
<glyph unicode="&#x2014;" horiz-adv-x="2048" d="M0 469v195h2044h8v-195h-2044h-8z" />
<glyph unicode="&#x2018;" horiz-adv-x="475" d="M96 1012v268q0 160 52 213q54 55 180 55h49v-120q-64 -4 -94.5 -29t-30.5 -111h104v-276h-260z" />
<glyph unicode="&#x2019;" horiz-adv-x="475" d="M100 1004v120q59 0 89 27t30 109h-98v276h256v-264q1 -160 -49 -211q-50 -53 -184 -61q-16 4 -44 4z" />
<glyph unicode="&#x201c;" horiz-adv-x="868" d="M100 1016v264q0 164 48 215q54 53 176 53h53v-120q-60 0 -90.5 -26t-30.5 -110h100v-276h-256zM492 1016v264q0 160 53 215q51 53 176 53h51v-120q-59 0 -92 -26q-33 -28 -33 -110h105v-276h-260z" />
<glyph unicode="&#x201d;" horiz-adv-x="868" d="M100 1004v120q58 0 88.5 26t30.5 110h-98v276h256v-248q0 -82 -9.5 -140t-43.5 -91q-46 -49 -180 -57q-16 4 -44 4zM492 1004v120q62 0 93 26t31 110h-100v276h256v-244v-36q0 -147 -47 -199q-49 -49 -185 -57q-20 4 -48 4z" />
<glyph unicode="&#x201e;" horiz-adv-x="868" d="M96 -135q58 0 88.5 25.5t30.5 109.5h-99v276h256v-243q0 -88 -10 -146q-8 -58 -42 -92q-32 -34 -81 -44.5t-118 -10.5h-25v125zM484 -135q63 0 93.5 25.5t30.5 109.5h-100v276h256v-243v-33q0 -151 -47 -205q-30 -29 -67.5 -40t-79.5 -12.5t-86 -2.5v125z" />
<glyph unicode="&#x2022;" horiz-adv-x="1065" d="M148 768q0 82 30.5 153t84 123t123.5 81t146 30q100 0 190 -51.5t144 -140.5t54 -195q0 -104 -54 -192.5t-144 -139.5t-190 -51q-162 4 -270 113t-114 270z" />
<glyph unicode="&#x2026;" horiz-adv-x="2048" d="M213 0v280h258v-280h-258zM897 0v280h258v-280h-258zM1579 0v280h256v-280h-256z" />
<glyph unicode="&#x202f;" horiz-adv-x="407" />
<glyph unicode="&#x2039;" horiz-adv-x="663" d="M104 563l268 541l177 -96l-221 -445l231 -432l-163 -103z" />
<glyph unicode="&#x203a;" horiz-adv-x="663" d="M104 131l232 432l-220 445l177 96l266 -541l-291 -535z" />
<glyph unicode="&#x205f;" horiz-adv-x="509" />
<glyph unicode="&#x2122;" horiz-adv-x="2048" d="M144 1376v160h704v-160h-252v-668h-200v668h-252zM948 708v828h291l189 -488l184 488h292v-828h-180v668h-4l-240 -668h-108l-240 668h-4v-668h-180z" />
<glyph unicode="&#xe000;" horiz-adv-x="1075" d="M0 1075h1075v-1075h-1075v1075z" />
<glyph unicode="&#xfb01;" horiz-adv-x="1196" d="M824 0v1075h256v-1075h-256zM824 1317v219h256v-219h-256zM28 876v199h152v105q0 212 84 288q72 68 260 68h168v-196h-76q-100 0 -132 -23q-28 -17 -38 -52t-10 -97v-93h264v-199h-264v-876h-256v876h-152z" />
<glyph unicode="&#xfb02;" horiz-adv-x="1228" d="M841 0v1536h258v-1536h-258zM28 876v199h152v105q0 212 84 288q72 68 260 68h168v-196h-76q-100 0 -132 -23q-28 -17 -38 -52t-10 -97v-93h264v-199h-264v-876h-256v876h-152z" />
<glyph unicode="&#xfb03;" horiz-adv-x="1908" d="M1537 0v1075h256v-1075h-256zM1537 1317v219h256v-219h-256zM740 876v199h152v105q0 212 84 288q72 68 260 68h168v-196h-76q-100 0 -132 -23q-28 -17 -38 -52t-10 -97v-93h264v-199h-264v-876h-256v876h-152zM28 876v199h152v105q0 212 84 288q72 68 260 68h168v-196 h-76q-100 0 -132 -23q-28 -17 -38 -52t-10 -97v-93h264v-199h-264v-876h-256v876h-152z" />
<glyph unicode="&#xfb04;" horiz-adv-x="1941" d="M1554 0v1536h258v-1536h-258zM740 876v199h152v105q0 212 84 288q72 68 260 68h168v-196h-76q-100 0 -132 -23q-28 -17 -38 -52t-10 -97v-93h264v-199h-264v-876h-256v876h-152zM28 876v199h152v105q0 212 84 288q72 68 260 68h168v-196h-76q-100 0 -132 -23 q-28 -17 -38 -52t-10 -97v-93h264v-199h-264v-876h-256v876h-152z" />
</font>
</defs>
</svg>
